<svg width="32" height="32" viewBox="0 0 32 32" fill="none" xmlns="http://www.w3.org/2000/svg">
  <rect width="32" height="32" rx="8" fill="#141227"/>
  <path
    d="M20 4C13.4 4 8 9.4 8 16s5.4 12 12 12c1.4 0 2.7-.2 4-.7-4.7-1.7-8-6.1-8-11.3s3.3-9.6 8-11.3c-1.3-.5-2.6-.7-4-.7z"
    fill="#B8B2F0"
  />
  <path
    d="M18.5 12c.3 1.4-.6 2-.9 3.1-.4 1.3.2 2.3 1.2 2.7-.1-1 .3-1.5.7-2 .1.6.5.9.9 1.4.5.7.5 1.6-.1 2.3-.9 1-2.5 1-3.6.2-1.4-1-1.9-2.9-1.2-4.5.4-1 1.4-1.8 3-3.2z"
    fill="#E8A33D"
  />
</svg>
